<svg width="164" height="37" viewBox="0 0 164 37" fill="none" xmlns="http://www.w3.org/2000/svg">
<g clip-path="url(#clip0)">
<path d="M51.0664 27.7398C49.1269 27.7398 47.4252 27.3415 45.9612 26.545C44.5157 25.7484 43.3903 24.6078 42.5851 23.1233C41.7984 21.6388 41.4048 19.9008 41.4048 17.9094C41.4048 15.936 41.7984 14.2071 42.5851 12.7226C43.3903 11.238 44.5157 10.0975 45.9612 9.30091C47.4252 8.50433 49.1269 8.10605 51.0664 8.10605C53.3902 8.10605 55.4306 8.71255 57.1873 9.9255C57.4985 10.1427 57.718 10.3781 57.846 10.6316C57.9925 10.885 58.0656 11.2109 58.0656 11.6092C58.0656 12.1704 57.9009 12.6502 57.5715 13.0484C57.2604 13.4286 56.8761 13.6187 56.4187 13.6187C56.1443 13.6187 55.8972 13.5825 55.6776 13.5101C55.4581 13.4196 55.2018 13.2838 54.9091 13.1027C54.2686 12.7226 53.6647 12.451 53.0976 12.2881C52.5304 12.1251 51.9448 12.0437 51.3409 12.0437C49.7122 12.0437 48.4956 12.5325 47.6904 13.5101C46.9036 14.4696 46.5101 15.936 46.5101 17.9094C46.5101 19.9008 46.9036 21.3853 47.6904 22.3629C48.4956 23.3225 49.7122 23.8022 51.3409 23.8022C51.8899 23.8022 52.4206 23.7207 52.9329 23.5578C53.4451 23.3768 54.1039 23.1052 54.9091 22.7431C55.2934 22.544 55.5771 22.4082 55.76 22.3358C55.9429 22.2634 56.1624 22.2272 56.4187 22.2272C56.8761 22.2272 57.2604 22.4263 57.5715 22.8246C57.9009 23.2048 58.0656 23.6755 58.0656 24.2367C58.0656 24.6169 57.9925 24.9427 57.846 25.2143C57.718 25.4678 57.4985 25.7031 57.1873 25.9204C55.4306 27.1333 53.3902 27.7398 51.0664 27.7398ZM66.1894 13.8088C68.2755 13.8088 69.8125 14.3067 70.8006 15.3024C71.8069 16.28 72.3103 17.7736 72.3103 19.7831V25.4587C72.3103 26.1467 72.0996 26.6898 71.679 27.0881C71.2762 27.4683 70.709 27.6583 69.9772 27.6583C69.3367 27.6583 68.8059 27.4773 68.3852 27.1152C67.9824 26.7531 67.7629 26.2643 67.7265 25.6488C67.4702 26.3005 67.0403 26.8074 66.4365 27.1695C65.8326 27.5316 65.1097 27.7127 64.2681 27.7127C63.3349 27.7127 62.4929 27.5316 61.7429 27.1695C60.9926 26.7894 60.398 26.2734 59.9588 25.6216C59.5378 24.9518 59.3275 24.2005 59.3275 23.3677C59.3275 22.4082 59.5745 21.6478 60.0686 21.0866C60.5808 20.5073 61.3861 20.0909 62.484 19.8374C63.5819 19.584 65.0641 19.4572 66.9305 19.4572H67.6716V19.1314C67.6716 18.4977 67.5251 18.0451 67.2324 17.7736C66.9394 17.4839 66.4454 17.3391 65.7503 17.3391C64.9999 17.3391 63.902 17.5925 62.4565 18.0994C62.0356 18.2443 61.6787 18.3167 61.3861 18.3167C60.9284 18.3167 60.5627 18.1538 60.2878 17.8279C60.0137 17.502 59.8765 17.0766 59.8765 16.5516C59.8765 16.1533 59.9588 15.8274 60.1235 15.5739C60.2882 15.3205 60.5534 15.0942 60.9195 14.895C61.5597 14.5692 62.3649 14.3067 63.3349 14.1075C64.3045 13.9084 65.2562 13.8088 66.1894 13.8088ZM65.4209 24.4811C66.0796 24.4811 66.6193 24.2548 67.0403 23.8022C67.4609 23.3315 67.6716 22.7341 67.6716 22.0099V21.684H67.2324C66.0611 21.684 65.2288 21.7927 64.7347 22.0099C64.2406 22.2091 63.9936 22.553 63.9936 23.0418C63.9936 23.4582 64.1216 23.8022 64.3779 24.0738C64.6524 24.3453 64.9999 24.4811 65.4209 24.4811ZM83.6119 13.8631C84.2339 13.8088 84.728 13.9536 85.094 14.2976C85.4601 14.6235 85.643 15.1123 85.643 15.764C85.643 16.4882 85.469 17.0132 85.1215 17.3391C84.7921 17.665 84.1883 17.8731 83.3099 17.9637L82.4865 18.0451C81.5715 18.1538 80.9127 18.4434 80.5103 18.9141C80.126 19.3667 79.9339 19.9913 79.9339 20.7879V25.4316C79.9339 26.1738 79.6961 26.735 79.2202 27.1152C78.7629 27.4773 78.1865 27.6583 77.491 27.6583C76.7956 27.6583 76.2102 27.4773 75.7344 27.1152C75.277 26.735 75.0482 26.1738 75.0482 25.4316V16.0356C75.0482 15.3476 75.277 14.8136 75.7344 14.4334C76.2102 14.0532 76.7774 13.8631 77.4361 13.8631C78.1131 13.8631 78.6531 14.0441 79.0555 14.4062C79.4765 14.7683 79.6868 15.2752 79.6868 15.927V16.4429C79.9795 15.6463 80.4554 15.0308 81.1141 14.5963C81.791 14.1618 82.4958 13.9265 83.2276 13.8903L83.6119 13.8631ZM92.8597 13.8088C94.9457 13.8088 96.4828 14.3067 97.4709 15.3024C98.4772 16.28 98.9805 17.7736 98.9805 19.7831V25.4587C98.9805 26.1467 98.7702 26.6898 98.3492 27.0881C97.9468 27.4683 97.3793 27.6583 96.6475 27.6583C96.0069 27.6583 95.4765 27.4773 95.0555 27.1152C94.653 26.7531 94.4335 26.2643 94.3967 25.6488C94.1405 26.3005 93.7106 26.8074 93.1067 27.1695C92.5029 27.5316 91.78 27.7127 90.9383 27.7127C90.0051 27.7127 89.1635 27.5316 88.4131 27.1695C87.6628 26.7894 87.0682 26.2734 86.6291 25.6216C86.2081 24.9518 85.9977 24.2005 85.9977 23.3677C85.9977 22.4082 86.2448 21.6478 86.7388 21.0866C87.2511 20.5073 88.0563 20.0909 89.1542 19.8374C90.2521 19.584 91.7343 19.4572 93.6008 19.4572H94.3418V19.1314C94.3418 18.4977 94.1953 18.0451 93.9027 17.7736C93.61 17.4839 93.116 17.3391 92.4205 17.3391C91.6702 17.3391 90.5723 17.5925 89.1268 18.0994C88.7058 18.2443 88.349 18.3167 88.0563 18.3167C87.599 18.3167 87.2329 18.1538 86.9584 17.8279C86.6839 17.502 86.5467 17.0766 86.5467 16.5516C86.5467 16.1533 86.629 15.8274 86.7937 15.5739C86.9584 15.3205 87.2236 15.0942 87.5897 14.895C88.2303 14.5692 89.0352 14.3067 90.0051 14.1075C90.975 13.9084 91.9265 13.8088 92.8597 13.8088ZM92.0911 24.4811C92.7499 24.4811 93.2896 24.2548 93.7106 23.8022C94.1315 23.3315 94.3418 22.7341 94.3418 22.0099V21.684H93.9027C92.7317 21.684 91.899 21.7927 91.4049 22.0099C90.9109 22.2091 90.6639 22.553 90.6639 23.0418C90.6639 23.4582 90.7918 23.8022 91.0481 24.0738C91.3226 24.3453 91.6702 24.4811 92.0911 24.4811ZM118.956 13.8088C120.438 13.8088 121.582 14.2524 122.387 15.1394C123.192 16.0084 123.595 17.4839 123.595 19.5659V25.4316C123.595 26.1738 123.356 26.735 122.881 27.1152C122.423 27.4773 121.847 27.6583 121.152 27.6583C120.456 27.6583 119.871 27.4773 119.395 27.1152C118.937 26.735 118.709 26.1738 118.709 25.4316V19.4572C118.709 18.7331 118.581 18.2262 118.325 17.9365C118.068 17.6469 117.693 17.502 117.199 17.502C116.559 17.502 116.046 17.7283 115.662 18.1809C115.278 18.6335 115.086 19.2581 115.086 20.0547V25.4316C115.086 26.1738 114.857 26.735 114.399 27.1152C113.942 27.4773 113.357 27.6583 112.643 27.6583C111.947 27.6583 111.362 27.4773 110.886 27.1152C110.429 26.735 110.2 26.1738 110.2 25.4316V19.4572C110.2 18.7331 110.072 18.2262 109.816 17.9365C109.56 17.6469 109.185 17.502 108.69 17.502C108.05 17.502 107.538 17.7283 107.153 18.1809C106.787 18.6335 106.604 19.2581 106.604 20.0547V25.4316C106.604 26.1738 106.366 26.735 105.891 27.1152C105.433 27.4773 104.857 27.6583 104.162 27.6583C103.466 27.6583 102.88 27.4773 102.405 27.1152C101.947 26.735 101.719 26.1738 101.719 25.4316V16.0356C101.719 15.3295 101.957 14.7955 102.432 14.4334C102.926 14.0532 103.512 13.8631 104.189 13.8631C104.829 13.8631 105.36 14.0351 105.781 14.3791C106.22 14.705 106.449 15.1847 106.467 15.8183C107.364 14.4786 108.736 13.8088 110.584 13.8088C112.542 13.8088 113.851 14.5963 114.509 16.1714C114.967 15.4472 115.58 14.8769 116.348 14.4605C117.117 14.0261 117.986 13.8088 118.956 13.8088ZM137.331 23.2048C137.752 23.2048 138.09 23.3677 138.346 23.6936C138.621 24.0194 138.758 24.4449 138.758 24.9699C138.758 25.6941 138.401 26.2462 137.688 26.6264C137.066 26.9342 136.324 27.1967 135.464 27.4139C134.623 27.6131 133.845 27.7127 133.131 27.7127C131.631 27.7127 130.323 27.432 129.206 26.8708C128.09 26.3096 127.23 25.504 126.626 24.4539C126.022 23.4039 125.72 22.1728 125.72 20.7607C125.72 19.421 126.004 18.2262 126.571 17.1761C127.157 16.108 127.962 15.2843 128.987 14.705C130.03 14.1075 131.201 13.8088 132.5 13.8088C133.763 13.8088 134.87 14.0804 135.821 14.6235C136.773 15.1666 137.505 15.936 138.017 16.9317C138.548 17.9274 138.813 19.0952 138.813 20.4349C138.813 20.8513 138.712 21.1771 138.511 21.4125C138.328 21.6297 138.054 21.7383 137.688 21.7383H130.441C130.57 22.6073 130.853 23.2319 131.292 23.6121C131.731 23.9923 132.381 24.1824 133.241 24.1824C133.699 24.1824 134.119 24.1371 134.504 24.0466C134.888 23.938 135.318 23.7931 135.794 23.6121C136.068 23.5035 136.334 23.413 136.59 23.3405C136.864 23.25 137.111 23.2048 137.331 23.2048ZM132.637 17.0675C131.997 17.0675 131.484 17.2757 131.1 17.6921C130.716 18.0904 130.487 18.6788 130.414 19.4572H134.723C134.613 17.8641 133.918 17.0675 132.637 17.0675ZM143.484 27.6583C142.788 27.6583 142.203 27.4773 141.727 27.1152C141.27 26.735 141.041 26.1738 141.041 25.4316V10.4686C141.041 9.72635 141.27 9.16513 141.727 8.78495C142.203 8.40477 142.788 8.21467 143.484 8.21467C144.179 8.21467 144.755 8.40477 145.213 8.78495C145.689 9.16513 145.926 9.72635 145.926 10.4686V25.4316C145.926 26.1738 145.689 26.735 145.213 27.1152C144.755 27.4773 144.179 27.6583 143.484 27.6583ZM155.567 27.7127C154.085 27.7127 152.777 27.432 151.642 26.8708C150.526 26.2915 149.657 25.4768 149.035 24.4268C148.431 23.3768 148.129 22.1457 148.129 20.7336C148.129 19.3215 148.431 18.0994 149.035 17.0675C149.657 16.0175 150.526 15.2119 151.642 14.6506C152.758 14.0894 154.067 13.8088 155.567 13.8088C157.068 13.8088 158.376 14.0894 159.492 14.6506C160.608 15.2119 161.469 16.0175 162.072 17.0675C162.695 18.0994 163.006 19.3215 163.006 20.7336C163.006 22.1457 162.695 23.3768 162.072 24.4268C161.469 25.4768 160.608 26.2915 159.492 26.8708C158.376 27.432 157.068 27.7127 155.567 27.7127ZM155.567 24.1009C157.306 24.1009 158.175 22.9785 158.175 20.7336C158.175 18.4887 157.306 17.3662 155.567 17.3662C153.829 17.3662 152.96 18.4887 152.96 20.7336C152.96 22.9785 153.829 24.1009 155.567 24.1009Z" fill="#B87344"/>
<path d="M33.4594 26.9599L25.2993 8.50233C25.0092 7.84593 24.377 7.42546 23.6812 7.42546H17.9845L18.1275 8.76133C18.1567 9.03357 17.9401 9.27122 17.6628 9.27122H15.9607C15.6834 9.27122 15.4668 9.03357 15.496 8.76133L15.639 7.42546H9.9423C9.24588 7.42546 8.61369 7.84593 8.32357 8.50233L0.163469 26.9599C-0.376492 28.1822 0.485112 29.5745 1.78276 29.5745H13.2731L13.8749 23.9404C13.9251 23.4709 14.3256 23.1144 14.8037 23.1144H18.8198C19.2979 23.1144 19.6983 23.4709 19.7485 23.9404L20.3504 29.5745H31.8407C33.1384 29.5745 34 28.1822 33.4594 26.9599ZM15.2006 11.5299C15.2127 11.4166 15.2669 11.3116 15.3527 11.2353C15.4385 11.1591 15.5499 11.1169 15.6653 11.117H17.9588C18.1975 11.117 18.3984 11.2952 18.4234 11.5299L18.692 14.0436C18.7358 14.4526 18.4112 14.8085 17.9956 14.8085H15.6291C15.2129 14.8085 14.8889 14.4526 14.9327 14.0436L15.2006 11.5299ZM18.4252 21.2686H15.1977C14.6431 21.2686 14.2106 20.7939 14.269 20.2488L14.5649 17.4802C14.6151 17.0107 15.0156 16.6542 15.4937 16.6542H18.1292C18.6073 16.6542 19.0078 17.0107 19.058 17.4802L19.3539 20.2488C19.4123 20.7939 18.9798 21.2686 18.4252 21.2686Z" fill="#F8F8F8"/>
</g>
<defs>
<clipPath id="clip0">
<rect width="164" height="37" fill="white"/>
</clipPath>
</defs>
</svg>
